<?xml version="1.0" encoding="utf-8"?>
<!-- Svg Vector Icons : http://www.onlinewebfonts.com/icon -->
<!DOCTYPE svg PUBLIC "-//W3C//DTD SVG 1.1//EN" "http://www.w3.org/Graphics/SVG/1.1/DTD/svg11.dtd">
<svg version="1.1" xmlns="http://www.w3.org/2000/svg" xmlns:xlink="http://www.w3.org/1999/xlink" x="0px" y="0px" viewBox="0 0 1000 1000" enable-background="new 0 0 1000 1000" xml:space="preserve">
<metadata> Svg Vector Icons : http://www.onlinewebfonts.com/icon </metadata>
<g><path d="M839.5,427.8c-18.4,0-30.7,12.3-30.7,30.7v393.2c0,43-30.7,79.9-73.7,79.9H163.6c-43,0-92.2-36.9-92.2-79.9V280.3c0-43,49.2-86,92.2-86h325.6c18.4,0,30.7-12.3,30.7-30.7c0-18.4-12.3-30.7-30.7-30.7H163.6c-86,0-153.6,61.4-153.6,147.5v571.4c0,86,67.6,141.3,153.6,141.3H735c86,0,135.2-55.3,135.2-141.3V464.7C870.2,446.2,857.9,427.8,839.5,427.8L839.5,427.8z M962.3,83.7l-49.2-49.2c-36.9-36.9-98.3-36.9-135.2,0L692,139L225,593.7V606l-61.4,202.8l43,36.9L397.1,778h12.3l448.5-473.1l104.5-86C999.2,182,999.2,120.6,962.3,83.7L962.3,83.7z M249.6,759.6l30.7-86l55.3,55.3L249.6,759.6L249.6,759.6z M390.9,698.1l-86-86l423.9-417.8l79.9,79.9L390.9,698.1L390.9,698.1z M919.3,169.7l-61.4,61.4L765.7,139l61.4-61.4c6.1,0,18.4-6.1,24.6-6.1c6.1,0,18.4,6.1,24.6,6.1l49.2,49.2C931.6,139,931.6,157.5,919.3,169.7L919.3,169.7z"/></g>
</svg>